PathFileType	4	(X/Y/Z)	C:/Users/opensim2020/Desktop/walking_exp_matlab/subject02_walking07_straight_01.trc	
DataRate	CameraRate	NumFrames	NumMarkers	Units	OrigDataRate	OrigDataStartFrame	OrigNumFrames	
100.00	100.00	6	50	mm	100.00	758	176	
Frame#	Time	LFHD			RFHD			LBHD			RBHD			C7			T10			CLAV			STRN			RBAK			LSHO			LUPA			LELB			LFRM			LWRA			LWRB			LFIN			RSHO			RUPA			RELB			RFRM			RWRA			RWRB			RFIN			LASI			RASI			LPSI			RPSI			LTHI			LKNE			LTIB			LANK			LHEE			LTOE			RTHI			RKNE			RTIB			RANK			RHEE			RTOE			*39			*40			*41			*42			*43			*44			*45			*46			*47			*48			*49			
		X1	Y1	Z1	X2	Y2	Z2	X3	Y3	Z3	X4	Y4	Z4	X5	Y5	Z5	X6	Y6	Z6	X7	Y7	Z7	X8	Y8	Z8	X9	Y9	Z9	X10	Y10	Z10	X11	Y11	Z11	X12	Y12	Z12	X13	Y13	Z13	X14	Y14	Z14	X15	Y15	Z15	X16	Y16	Z16	X17	Y17	Z17	X18	Y18	Z18	X19	Y19	Z19	X20	Y20	Z20	X21	Y21	Z21	X22	Y22	Z22	X23	Y23	Z23	X24	Y24	Z24	X25	Y25	Z25	X26	Y26	Z26	X27	Y27	Z27	X28	Y28	Z28	X29	Y29	Z29	X30	Y30	Z30	X31	Y31	Z31	X32	Y32	Z32	X33	Y33	Z33	X34	Y34	Z34	X35	Y35	Z35	X36	Y36	Z36	X37	Y37	Z37	X38	Y38	Z38	X39	Y39	Z39	X40	Y40	Z40	X41	Y41	Z41	X42	Y42	Z42	X43	Y43	Z43	X44	Y44	Z44	X45	Y45	Z45	X46	Y46	Z46	X47	Y47	Z47	X48	Y48	Z48	X49	Y49	Z49	X50	Y50	Z50	

111	1.100	1319.50012	21.83826	1754.59082	1463.22375	15.39876	1740.27295	1305.32678	-89.64758	1653.36292	1447.47375	-107.64358	1635.33911	1379.55579	-132.45377	1527.97717	1388.50354	-198.44171	1258.13660	1375.94958	4.80603	1457.80029	1388.17468	48.02916	1281.65930	1445.85205	-199.75258	1361.57703	1206.37378	-51.28696	1502.96472	1112.33716	-8.95613	1317.22681	1090.94348	50.16165	1186.65259	1095.80225	138.78404	1085.02222	1154.05469	247.44077	1022.21643	1112.70923	220.02249	995.03589	1118.47729	276.97552	962.10071	1569.23132	-58.18678	1496.52771	1656.07019	-103.05648	1311.01624	1670.91418	-99.39524	1164.49365	1694.68201	-84.38834	1045.20789	1677.64429	-55.82310	912.36932	1713.09888	-100.39698	916.41736	1715.31360	-72.32225	849.08136	1263.49451	23.21399	983.39197	1519.39526	23.46133	981.43286	1344.14807	-185.58516	1034.86206	1458.59204	-191.14828	1035.93921	1235.01440	-63.00309	672.89465	1275.43445	-113.34473	475.20135	1286.21155	-187.39017	293.96762	1336.23242	-200.40424	71.86797	1387.56201	-238.46014	47.32885	1331.73083	-43.99485	31.50524	1616.44104	6.88322	689.77844	1591.09729	74.83106	490.99414	1590.04883	54.34594	304.72772	1558.24207	70.53994	111.39127	1496.52441	64.87293	51.86675	1614.81567	215.84740	77.06920	1399.67529	-97.84488	1798.47717	-3360.28540	2845.17334	1033.77783																											 
112	1.110	1319.69165	30.83087	1754.09619	1463.20398	24.14202	1739.36938	1305.30383	-80.55620	1652.65735	1447.25073	-98.53398	1634.18689	1379.35522	-123.37862	1527.26331	1388.82324	-189.68828	1257.56921	1375.71069	13.74809	1456.94556	1387.90796	56.83297	1280.79150	1445.70532	-190.90123	1360.98621	1206.29236	-42.32120	1502.35498	1112.14563	1.51519	1317.69324	1090.47668	62.37585	1187.69861	1095.30127	152.19473	1087.63135	1153.61108	261.85303	1026.12732	1112.35583	234.81920	998.47437	1117.70654	292.18918	966.67346	1568.72473	-49.55409	1495.56628	1655.35376	-95.78498	1310.38794	1670.56848	-92.89491	1164.06580	1694.70398	-79.08439	1044.80176	1677.48303	-51.81892	911.46747	1712.79297	-96.23216	916.10638	1715.35437	-68.77856	848.39716	1263.42810	31.04675	982.57104	1519.31653	32.45407	980.43488	1344.82471	-177.32858	1034.43481	1459.28259	-182.15800	1035.40845	1234.84180	-57.51719	672.23492	1275.51794	-109.29902	475.02478	1286.36804	-185.05061	294.54117	1336.41736	-200.06923	72.52557	1387.94470	-238.09982	48.30984	1331.49438	-43.90898	31.46969	1615.68530	16.16503	688.57471	1588.44153	86.08951	490.36139	1589.40369	73.16536	303.48099	1559.68188	96.86636	110.78352	1498.04126	92.49485	50.42806	1613.96045	244.31476	81.94262	1399.84106	-88.97922	1797.61401	-3360.26147	2845.17822	1034.03760																											 
113	1.120	1319.92749	39.82301	1753.42749	1463.45117	33.08645	1738.42480	1305.19421	-71.37473	1651.85461	1447.25525	-89.52683	1633.19507	1379.27258	-114.30781	1526.40442	1389.17969	-180.75183	1256.82056	1375.63293	22.77054	1456.06592	1387.74707	65.70765	1279.87671	1445.63086	-182.01860	1360.36682	1206.26172	-33.27295	1501.66406	1112.13684	12.14429	1317.44958	1090.08301	74.08908	1188.46118	1094.92163	165.22304	1089.53528	1153.25391	275.73505	1029.62219	1111.94373	249.02357	1001.55664	1117.30725	306.98343	970.74689	1568.93982	-40.43206	1494.74854	1655.28613	-88.00246	1309.95703	1670.12158	-86.39892	1163.50183	1694.40503	-73.56142	1044.10669	1677.67114	-47.18072	910.67627	1712.60681	-91.76418	915.67468	1715.39465	-65.07590	847.56708	1263.39990	39.10383	981.76093	1519.23010	41.59520	979.39526	1345.63477	-169.02397	1033.92859	1460.10022	-173.07977	1034.82166	1234.71960	-52.19559	671.81226	1275.56433	-105.28429	475.04044	1286.50635	-182.68468	295.09164	1336.59668	-199.70476	73.15883	1388.27234	-237.77019	48.97564	1331.23975	-43.86735	31.36978	1614.71558	25.17132	687.05005	1585.89539	97.20495	489.65250	1588.84314	91.62439	302.55554	1560.31116	122.35307	110.04551	1499.84094	119.34325	49.76508	1612.81152	272.09460	87.19733	1399.97839	-80.10498	1796.76465	-3357.04468	2845.97388	1034.00586																											 
114	1.130	1320.07715	48.80415	1752.75586	1463.75916	42.08194	1737.48315	1305.48975	-62.27486	1651.12695	1446.95605	-80.59151	1632.01282	1379.32996	-105.25908	1525.67188	1389.64185	-171.79446	1256.02197	1375.63953	31.82518	1455.12805	1387.76868	74.63132	1278.93701	1445.66113	-173.01552	1359.66541	1206.37622	-24.25458	1500.87830	1111.92896	22.07165	1317.32068	1089.88159	85.51212	1188.89819	1094.92139	178.30440	1090.73254	1152.84644	289.12689	1032.59583	1111.66235	262.80182	1004.18951	1116.77441	321.01462	974.17480	1569.10840	-31.12988	1493.86047	1655.08203	-80.21963	1309.35132	1669.71460	-79.65775	1162.86682	1693.99683	-67.98975	1043.29700	1677.87732	-42.25418	909.76971	1712.43481	-87.06484	915.16113	1715.58386	-60.75401	847.01190	1263.38855	47.26703	980.94769	1519.20630	50.94091	978.24402	1346.55518	-160.52596	1033.29651	1461.02759	-163.82079	1034.06506	1234.60938	-46.66903	671.25195	1275.59998	-101.16043	474.87326	1286.71472	-180.40610	295.88443	1336.65991	-199.38559	73.79518	1388.48816	-237.50841	49.90607	1330.98267	-43.96939	31.43472	1613.64539	34.05429	685.35956	1583.03003	108.39436	488.96286	1588.40747	109.55202	301.88638	1561.68933	147.54446	110.52012	1501.52905	145.23654	49.52113	1611.17566	298.88699	92.48801	1400.42322	-71.17039	1795.65662	-3360.21094	2845.10718	1034.01453																											 
115	1.140	1320.63245	57.97902	1751.90527	1464.13245	51.14148	1736.46924	1305.71338	-53.08218	1650.24805	1447.10925	-71.43651	1631.01794	1379.36731	-96.11389	1524.72864	1390.22864	-162.72894	1255.17480	1375.76550	40.90703	1454.15417	1387.88831	83.64130	1277.92273	1445.78796	-163.99498	1358.97852	1206.55554	-15.17013	1500.01685	1112.04102	32.17194	1316.92639	1089.62854	96.53441	1189.12476	1094.46863	190.23003	1092.11865	1152.49121	302.03223	1035.10181	1111.40784	275.84381	1006.41449	1116.29565	334.55450	977.04352	1569.13635	-22.25475	1492.93445	1655.01135	-72.36034	1308.73572	1669.49255	-72.77676	1162.21204	1694.11292	-61.87338	1042.70972	1677.93738	-37.08755	908.81104	1712.21973	-82.31918	914.43909	1715.52710	-56.28315	846.16101	1263.32556	55.40398	980.08459	1519.00903	60.32626	976.92499	1347.51880	-151.92628	1032.56177	1462.09998	-154.43730	1033.25012	1234.48035	-41.17527	670.84967	1275.63904	-96.91535	474.79059	1286.87000	-178.07732	296.61414	1336.66980	-199.04372	74.51356	1388.69055	-237.17603	51.03664	1330.72559	-43.85708	31.39154	1612.47937	43.01361	683.57214	1580.72900	119.31818	488.26184	1588.04260	127.11838	301.52234	1562.44397	171.53020	110.91061	1503.09131	170.15230	49.81502	1609.15247	325.07590	98.24741	1401.24390	-62.12077	1795.00244	-3360.30176	2845.10962	1034.16492																											 
116	1.150	1321.10071	67.13496	1751.05920	1464.56140	60.22364	1735.36365	1305.95483	-43.80920	1649.32312	1447.35291	-62.24678	1629.75513	1379.49219	-86.88110	1523.62805	1390.90918	-153.55585	1254.22437	1375.94507	50.01592	1453.13660	1388.14453	92.75729	1276.94067	1445.61121	-154.85312	1357.65479	1206.78894	-5.98557	1499.00073	1112.11755	41.79689	1316.42432	1089.78027	107.22066	1189.07349	1094.42542	201.68436	1092.85706	1152.15271	314.47443	1037.09851	1111.16309	288.36249	1008.10455	1115.87256	347.42667	979.41309	1569.43091	-13.13577	1491.93616	1655.06116	-64.34016	1307.97107	1669.48926	-65.65761	1161.41064	1694.11890	-55.77764	1041.74060	1678.03906	-31.65002	907.89252	1712.20386	-76.74101	913.95166	1715.50244	-51.58340	845.10883	1263.30408	63.57384	979.11475	1518.81104	70.00239	975.63153	1348.66235	-143.19298	1031.77722	1463.23987	-144.90271	1032.32141	1234.37659	-35.46762	670.28925	1275.70581	-92.62646	474.63483	1287.11340	-175.72705	297.40024	1336.76819	-198.67796	75.31319	1388.51477	-237.04889	51.81348	1330.53857	-43.89780	31.48499	1611.21594	51.96663	681.60840	1578.28308	129.96259	487.21600	1587.72839	144.18448	301.36966	1563.57629	194.93541	112.11057	1504.60205	194.01881	50.61893	1606.28906	349.88348	103.65776	1401.37280	-53.06136	1793.48547	-3357.07275	2845.85547	1034.02478																											 
